<?xml version="1.0" encoding="utf-8"?>
<!-- Generator: Adobe Illustrator 16.0.0, SVG Export Plug-In . SVG Version: 6.00 Build 0)  -->
<!DOCTYPE svg PUBLIC "-//W3C//DTD SVG 1.1//EN" "http://www.w3.org/Graphics/SVG/1.1/DTD/svg11.dtd">
<svg version="1.1" id="Layer_1" xmlns="http://www.w3.org/2000/svg" xmlns:xlink="http://www.w3.org/1999/xlink" x="0px" y="0px"
	 width="260px" height="400px" viewBox="0 0 260 400" enable-background="new 0 0 260 400" xml:space="preserve">
<rect y="23.272" fill="none" width="260" height="361.503"/>
<text transform="matrix(1 0 0 1 15.1108 63.5522)"><tspan x="0" y="0" fill="#FF931E" font-family="'OpenSans'" font-size="53">LEVEL UP</tspan><tspan x="-0.568" y="79" fill="#FFFFFF" font-family="'OpenSans'" font-size="86">YOUR</tspan><tspan x="2.479" y="112.6" fill="#FFFFFF" font-family="'OpenSans'" font-size="28">PREPPING SKILLS</tspan><tspan x="1.742" y="176.6" fill="#FF931E" font-family="'OpenSans-Bold'" font-size="31">BY EXPLORING</tspan><tspan x="37.309" y="262.6" fill="#FFFFFF" font-family="'OpenSans'" font-size="84">THE</tspan><tspan x="35.819" y="302.6" fill="#FFFFFF" font-family="'OpenSans-Semibold'" font-size="29">LOST WAYS</tspan></text>
<path fill="#F64C35" d="M251,26.901c0,2.264-1.835,4.099-4.098,4.099h-8.805c-2.263,0-4.098-1.835-4.098-4.099V16.099
	c0-2.264,1.835-4.099,4.098-4.099h8.805c2.263,0,4.098,1.835,4.098,4.099V26.901z"/>
<text transform="matrix(1 0 0 1 236.4971 25.624)" fill="#FFFFFF" font-family="'OpenSans-Semibold'" font-size="9.9559">+1</text>
</svg>
