<svg xmlns="http://www.w3.org/2000/svg" width="260" height="400" viewBox="0 0 260 400"><path fill="#FF931E" d="M20.312 63.552V25.717h4.399v33.85h16.692v3.985H20.312zM68.913 63.552H47.822V25.717h21.091v3.908H52.221v12.189h15.683v3.882H52.221v13.923h16.692v3.933zM98.907 25.717h4.736L90.004 63.552h-4.348l-13.56-37.835h4.658l8.695 24.481c1 2.812 1.794 5.547 2.381 8.204a68.419 68.419 0 0 1 2.433-8.359l8.644-24.326zM129.936 63.552h-21.091V25.717h21.091v3.908h-16.692v12.189h15.683v3.882h-15.683v13.923h16.692v3.933zM138.32 63.552V25.717h4.4v33.85h16.691v3.985H138.32zM208.166 25.717v24.481c0 4.313-1.303 7.704-3.906 10.17-2.605 2.467-6.186 3.701-10.74 3.701s-8.078-1.242-10.572-3.727c-2.492-2.484-3.738-5.9-3.738-10.248V25.717h4.398v24.688c0 3.157.863 5.582 2.588 7.272 1.725 1.691 4.262 2.536 7.609 2.536 3.191 0 5.65-.85 7.375-2.549 1.725-1.699 2.588-4.136 2.588-7.311V25.717h4.398zM242.172 36.742c0 3.83-1.307 6.776-3.92 8.838s-6.354 3.092-11.219 3.092h-4.451v14.88h-4.4V25.717h9.809c9.454 0 14.181 3.675 14.181 11.025zm-19.59 8.152h3.959c3.898 0 6.721-.629 8.463-1.889 1.742-1.259 2.613-3.278 2.613-6.056 0-2.501-.818-4.365-2.459-5.59-1.639-1.225-4.191-1.837-7.66-1.837h-4.916v15.372z"/><path fill="#FFF" d="M38.604 111.856L54.981 81.16h7.727l-20.492 37.583v23.81h-7.223v-23.474L14.542 81.16h7.811l16.251 30.696zM124.436 111.772c0 9.826-2.485 17.553-7.454 23.18-4.97 5.627-11.877 8.44-20.723 8.44-9.043 0-16.02-2.764-20.933-8.293-4.913-5.528-7.37-13.333-7.37-23.411 0-9.994 2.463-17.742 7.391-23.243 4.927-5.501 11.926-8.251 20.996-8.251 8.818 0 15.705 2.8 20.66 8.398 4.955 5.6 7.433 13.326 7.433 23.18zm-48.921 0c0 8.314 1.77 14.621 5.312 18.917 3.541 4.298 8.685 6.446 15.432 6.446 6.803 0 11.939-2.142 15.411-6.425 3.471-4.283 5.207-10.596 5.207-18.938 0-8.258-1.729-14.522-5.186-18.792-3.458-4.269-8.574-6.404-15.348-6.404-6.803 0-11.975 2.149-15.516 6.446-3.542 4.298-5.312 10.548-5.312 18.75zM184.484 81.16v39.725c0 6.999-2.113 12.5-6.34 16.503-4.229 4.004-10.037 6.005-17.428 6.005s-13.107-2.016-17.152-6.047c-4.047-4.031-6.068-9.574-6.068-16.629V81.16h7.139v40.061c0 5.123 1.398 9.057 4.199 11.8 2.799 2.744 6.914 4.115 12.346 4.115 5.178 0 9.168-1.378 11.967-4.136 2.799-2.757 4.199-6.711 4.199-11.863V81.16h7.138zM207.875 117.021v25.531h-7.139V81.16h16.838c7.531 0 13.096 1.442 16.691 4.325 3.598 2.884 5.396 7.223 5.396 13.018 0 8.119-4.115 13.605-12.346 16.461l16.672 27.589h-8.441l-14.865-25.531h-12.806zm0-6.131h9.783c5.039 0 8.734-1 11.086-3.002 2.352-2.001 3.527-5.003 3.527-9.007 0-4.059-1.197-6.984-3.59-8.776-2.395-1.791-6.236-2.688-11.527-2.688h-9.279v23.473zM33.012 161.988c0 2.023-.69 3.58-2.071 4.669-1.381 1.089-3.356 1.634-5.927 1.634h-2.352v7.861h-2.324v-19.988h5.182c4.995 0 7.492 1.941 7.492 5.824zm-10.349 4.307h2.092c2.06 0 3.55-.333 4.471-.998.92-.665 1.381-1.731 1.381-3.199 0-1.321-.433-2.306-1.299-2.953-.866-.647-2.215-.971-4.047-.971h-2.598v8.121zM39.52 167.84v8.312h-2.324v-19.988h5.482c2.452 0 4.263.47 5.435 1.408 1.171.939 1.757 2.352 1.757 4.238 0 2.644-1.34 4.43-4.02 5.359l5.428 8.982H48.53l-4.84-8.312h-4.17zm0-1.996h3.186c1.641 0 2.844-.326 3.609-.978.766-.651 1.148-1.629 1.148-2.933 0-1.321-.39-2.274-1.169-2.857-.779-.583-2.03-.875-3.753-.875H39.52v7.643zM65.647 176.152H54.504v-19.988h11.143v2.064h-8.818v6.439h8.285v2.051h-8.285v7.355h8.818v2.079zM82.75 161.988c0 2.023-.69 3.58-2.071 4.669-1.381 1.089-3.356 1.634-5.927 1.634H72.4v7.861h-2.324v-19.988h5.182c4.995 0 7.492 1.941 7.492 5.824zm-10.349 4.307h2.092c2.06 0 3.55-.333 4.471-.998.92-.665 1.381-1.731 1.381-3.199 0-1.321-.433-2.306-1.299-2.953-.866-.647-2.215-.971-4.047-.971h-2.598v8.121zM99.608 161.988c0 2.023-.69 3.58-2.071 4.669-1.381 1.089-3.356 1.634-5.927 1.634h-2.352v7.861h-2.324v-19.988h5.182c4.994 0 7.492 1.941 7.492 5.824zm-10.35 4.307h2.092c2.06 0 3.55-.333 4.471-.998.92-.665 1.381-1.731 1.381-3.199 0-1.321-.433-2.306-1.299-2.953-.866-.647-2.215-.971-4.047-.971h-2.598v8.121zM103.792 176.152v-19.988h2.324v19.988h-2.324zM127.211 176.152h-2.652l-10.924-16.775h-.109c.146 1.969.219 3.773.219 5.414v11.361h-2.146v-19.988h2.625l10.896 16.707h.109c-.019-.246-.06-1.037-.123-2.372-.064-1.335-.087-2.29-.068-2.864v-11.471h2.174v19.988zM141.498 165.68h6.795v9.721c-1.057.337-2.133.593-3.227.766s-2.359.26-3.801.26c-3.025 0-5.382-.9-7.068-2.7-1.686-1.8-2.529-4.322-2.529-7.567 0-2.078.418-3.898 1.252-5.462a8.46 8.46 0 0 1 3.602-3.582c1.568-.825 3.404-1.237 5.51-1.237 2.133 0 4.121.392 5.961 1.176l-.902 2.051c-1.805-.766-3.541-1.148-5.209-1.148-2.434 0-4.334.725-5.701 2.174s-2.051 3.459-2.051 6.029c0 2.698.658 4.744 1.977 6.139 1.316 1.395 3.251 2.092 5.803 2.092 1.387 0 2.74-.159 4.061-.479v-6.152H141.5v-2.081zM171.645 170.834c0 1.759-.637 3.131-1.914 4.115-1.275.984-3.008 1.477-5.195 1.477-2.369 0-4.191-.305-5.469-.916v-2.242c.82.347 1.715.62 2.68.82.967.201 1.924.301 2.871.301 1.551 0 2.717-.294 3.5-.882.785-.588 1.176-1.406 1.176-2.454 0-.692-.139-1.26-.416-1.702-.279-.442-.744-.85-1.395-1.224-.652-.374-1.643-.797-2.975-1.271-1.859-.665-3.188-1.454-3.984-2.365-.799-.911-1.197-2.101-1.197-3.568 0-1.54.58-2.766 1.736-3.678 1.158-.911 2.689-1.367 4.594-1.367 1.988 0 3.814.365 5.482 1.094l-.725 2.023c-1.648-.692-3.254-1.039-4.812-1.039-1.23 0-2.191.265-2.885.793-.691.529-1.039 1.263-1.039 2.201 0 .693.129 1.26.383 1.702.256.442.686.848 1.293 1.217.605.369 1.533.777 2.781 1.224 2.098.748 3.539 1.55 4.328 2.406.787.856 1.182 1.968 1.182 3.335zM190.17 176.152h-2.734l-7.287-9.693-2.092 1.859v7.834h-2.324v-19.988h2.324v9.912l9.064-9.912h2.748l-8.039 8.682 8.34 11.306zM192.918 176.152v-19.988h2.324v19.988h-2.324zM200.725 176.152v-19.988h2.324v17.883h8.818v2.105h-11.142zM215.258 176.152v-19.988h2.324v17.883h8.818v2.105h-11.142zM241.07 170.834c0 1.759-.637 3.131-1.914 4.115-1.275.984-3.008 1.477-5.195 1.477-2.369 0-4.191-.305-5.469-.916v-2.242c.82.347 1.715.62 2.68.82.967.201 1.924.301 2.871.301 1.551 0 2.717-.294 3.5-.882.785-.588 1.176-1.406 1.176-2.454 0-.692-.139-1.26-.416-1.702-.279-.442-.744-.85-1.395-1.224-.652-.374-1.643-.797-2.975-1.271-1.859-.665-3.188-1.454-3.984-2.365-.799-.911-1.197-2.101-1.197-3.568 0-1.54.58-2.766 1.736-3.678 1.158-.911 2.689-1.367 4.594-1.367 1.988 0 3.814.365 5.482 1.094l-.725 2.023c-1.648-.692-3.254-1.039-4.812-1.039-1.23 0-2.191.265-2.885.793-.691.529-1.039 1.263-1.039 2.201 0 .693.129 1.26.383 1.702.256.442.686.848 1.293 1.217.605.369 1.533.777 2.781 1.224 2.098.748 3.539 1.55 4.328 2.406.788.856 1.182 1.968 1.182 3.335z"/><path fill="#FF931E" d="M19.638 218.021h6.887c3.138 0 5.417.447 6.834 1.34 1.417.893 2.126 2.314 2.126 4.262 0 1.322-.31 2.406-.931 3.254-.62.848-1.445 1.357-2.475 1.529v.15c1.402.312 2.414.898 3.035 1.756.62.857.931 1.998.931 3.422 0 2.018-.729 3.592-2.188 4.723-1.458 1.129-3.438 1.695-5.941 1.695h-8.28v-22.131zm4.693 8.766h2.725c1.271 0 2.192-.197 2.763-.592.57-.393.855-1.043.855-1.951 0-.848-.31-1.457-.931-1.824-.62-.369-1.602-.553-2.944-.553h-2.467v4.92zm0 3.723v5.768h3.058c1.292 0 2.245-.248 2.861-.742.615-.494.923-1.252.923-2.27 0-1.838-1.312-2.756-3.936-2.756h-2.906zM47.354 227.135l4.617-9.113h5.056l-7.341 13.518v8.613h-4.662v-8.461l-7.341-13.67h5.086l4.585 9.113zM80.609 240.152H67.864v-22.131h12.745v3.846h-8.053v4.859h7.493v3.844h-7.493v5.707h8.053v3.875zM103.117 240.152h-5.358l-5.146-8.371-5.146 8.371H82.44l7.341-11.414-6.872-10.717h5.177l4.768 7.963 4.677-7.963h5.056l-6.948 10.975 7.478 11.156zM121.19 224.924c0 2.383-.744 4.203-2.232 5.465-1.489 1.262-3.605 1.893-6.35 1.893h-2.013v7.871h-4.692v-22.131h7.069c2.684 0 4.725.578 6.123 1.734 1.397 1.154 2.095 2.877 2.095 5.168zm-10.595 3.512h1.544c1.443 0 2.522-.285 3.239-.855.716-.568 1.075-1.398 1.075-2.488 0-1.102-.3-1.914-.901-2.438-.6-.525-1.542-.787-2.823-.787h-2.134v6.568zM125.368 240.152v-22.131h4.692v18.256h8.977v3.875h-13.669zM162.967 229.057c0 3.664-.908 6.479-2.725 8.447-1.816 1.967-4.42 2.951-7.811 2.951s-5.994-.984-7.811-2.951c-1.816-1.969-2.725-4.795-2.725-8.477 0-3.684.912-6.496 2.732-8.439 1.822-1.943 4.434-2.914 7.834-2.914s6.002.979 7.803 2.938c1.802 1.956 2.703 4.771 2.703 8.445zm-16.151 0c0 2.473.469 4.334 1.408 5.586.938 1.25 2.342 1.877 4.207 1.877 3.744 0 5.617-2.488 5.617-7.463 0-4.984-1.863-7.477-5.586-7.477-1.867 0-3.275.627-4.223 1.883-.948 1.258-1.423 3.121-1.423 5.594zM172.246 231.66v8.492h-4.691v-22.131h6.447c3.008 0 5.232.549 6.676 1.643 1.443 1.096 2.164 2.758 2.164 4.988 0 1.301-.357 2.459-1.074 3.473-.717 1.016-1.73 1.811-3.043 2.385 3.33 4.975 5.5 8.189 6.51 9.643h-5.207l-5.283-8.492h-2.499zm0-3.814h1.514c1.484 0 2.578-.248 3.285-.742s1.061-1.271 1.061-2.33c0-1.051-.361-1.797-1.084-2.24-.721-.445-1.838-.666-3.352-.666h-1.424v5.978zM188.02 240.152v-22.131h4.691v22.131h-4.691zM217.914 240.152h-5.965l-9.627-16.742h-.135c.191 2.957.287 5.066.287 6.328v10.414h-4.193v-22.131h5.918l9.613 16.576h.105c-.152-2.877-.227-4.91-.227-6.102V218.02h4.223v22.132zM231.885 227.725h8.779V239.2c-1.422.463-2.762.789-4.018.975a26.006 26.006 0 0 1-3.854.281c-3.34 0-5.891-.982-7.65-2.945-1.762-1.961-2.643-4.779-2.643-8.453 0-3.572 1.023-6.357 3.066-8.355s4.877-2.996 8.498-2.996c2.271 0 4.461.453 6.57 1.361l-1.559 3.754c-1.615-.807-3.295-1.211-5.041-1.211-2.029 0-3.652.682-4.875 2.043-1.221 1.363-1.83 3.195-1.83 5.496 0 2.4.492 4.234 1.475 5.502.984 1.266 2.414 1.898 4.291 1.898.98 0 1.975-.1 2.982-.303v-4.615h-4.193v-3.907z"/><path fill="#FFF" d="M79.121 326.152h-6.973v-53.771h-18.99v-6.193h44.953v6.193h-18.99v53.771zM152.662 326.152h-6.973v-28.219h-31.583v28.219h-6.973v-59.965h6.973v25.512h31.583v-25.512h6.973v59.965zM202.537 326.152h-33.428v-59.965h33.428v6.193h-26.455v19.318h24.855v6.152h-24.855v22.066h26.455v6.236zM53.663 366.152v-20.703h3.384v17.801h8.765v2.902H53.663zM87.761 355.773c0 3.369-.842 5.988-2.528 7.857-1.685 1.869-4.071 2.805-7.158 2.805-3.125 0-5.525-.928-7.201-2.783-1.675-1.855-2.513-4.49-2.513-7.908s.842-6.041 2.528-7.873c1.685-1.832 4.09-2.746 7.214-2.746 3.078 0 5.457.93 7.137 2.789s2.521 4.479 2.521 7.859zm-15.803 0c0 2.549.515 4.48 1.543 5.797 1.029 1.318 2.554 1.977 4.574 1.977 2.011 0 3.528-.652 4.552-1.955 1.024-1.303 1.537-3.242 1.537-5.818 0-2.541-.507-4.467-1.522-5.777-1.015-1.312-2.528-1.969-4.539-1.969-2.03 0-3.561.656-4.595 1.969-1.033 1.31-1.55 3.235-1.55 5.776zM104.144 360.531c0 1.84-.666 3.285-1.997 4.332-1.331 1.049-3.167 1.572-5.508 1.572s-4.257-.363-5.749-1.09v-3.201a15.75 15.75 0 0 0 3.009 1.049c1.062.254 2.051.381 2.967.381 1.34 0 2.329-.254 2.967-.764.637-.51.956-1.195.956-2.053 0-.775-.292-1.432-.878-1.969-.585-.539-1.793-1.176-3.625-1.912-1.888-.764-3.219-1.639-3.993-2.619-.774-.982-1.161-2.162-1.161-3.541 0-1.727.614-3.086 1.841-4.078 1.227-.99 2.875-1.486 4.942-1.486 1.982 0 3.956.434 5.919 1.303l-1.076 2.762c-1.841-.775-3.483-1.162-4.928-1.162-1.095 0-1.926.238-2.492.715s-.85 1.107-.85 1.891c0 .539.113.998.34 1.381s.6.744 1.119 1.084 1.454.787 2.804 1.346c1.52.631 2.634 1.221 3.342 1.77.708.547 1.227 1.166 1.558 1.855.328.686.493 1.499.493 2.434zM115.302 366.152h-3.384v-17.799h-6.089v-2.904h15.562v2.904h-6.089v17.799zM151.197 366.152h-3.682l-3.512-12.348c-.15-.539-.34-1.314-.566-2.33-.227-1.014-.363-1.721-.41-2.117a39.42 39.42 0 0 1-.461 2.352c-.211.963-.389 1.68-.529 2.152l-3.428 12.291h-3.682l-2.676-10.365-2.719-10.338h3.455l2.959 12.064c.463 1.936.793 3.645.992 5.127.104-.803.26-1.699.467-2.691.207-.99.396-1.793.566-2.406l3.369-12.094h3.357l3.455 12.15c.33 1.123.68 2.803 1.047 5.041.143-1.35.482-3.068 1.02-5.154l2.945-12.037h3.428l-5.395 20.703zM172.367 366.152l-2.066-5.75h-7.916l-2.025 5.75h-3.568l7.746-20.787h3.682l7.746 20.787h-3.599zm-2.959-8.666l-1.939-5.637a33.479 33.479 0 0 1-.588-1.783 40.857 40.857 0 0 1-.518-1.785c-.254 1.162-.627 2.432-1.119 3.811l-1.869 5.395h6.033zM184.545 354.895l4.9-9.445h3.682l-6.896 12.674v8.029h-3.398v-7.916l-6.867-12.787h3.682l4.897 9.445zM207.797 360.531c0 1.84-.666 3.285-1.996 4.332-1.332 1.049-3.168 1.572-5.51 1.572-2.34 0-4.258-.363-5.748-1.09v-3.201c.943.443 1.947.793 3.008 1.049 1.062.254 2.051.381 2.967.381 1.342 0 2.33-.254 2.967-.764s.957-1.195.957-2.053c0-.775-.293-1.432-.879-1.969-.586-.539-1.793-1.176-3.625-1.912-1.889-.764-3.219-1.639-3.992-2.619-.775-.982-1.162-2.162-1.162-3.541 0-1.727.613-3.086 1.842-4.078 1.227-.99 2.873-1.486 4.941-1.486 1.982 0 3.955.434 5.918 1.303l-1.076 2.762c-1.84-.775-3.482-1.162-4.928-1.162-1.094 0-1.926.238-2.492.715s-.85 1.107-.85 1.891c0 .539.113.998.34 1.381s.6.744 1.119 1.084 1.453.787 2.805 1.346c1.52.631 2.633 1.221 3.342 1.77.707.547 1.227 1.166 1.557 1.855.329.686.495 1.499.495 2.434z"/><path fill="#F64C35" d="M251 26.901A4.099 4.099 0 0 1 246.902 31h-8.805a4.099 4.099 0 0 1-4.098-4.099V16.099A4.099 4.099 0 0 1 238.097 12h8.805A4.099 4.099 0 0 1 251 16.099v10.802z"/><g fill="#FFF"><path d="M238.898 22.547h-1.935v-.865h1.935v-1.983h.875v1.983h1.939v.865h-1.939v1.974h-.875v-1.974zM245.972 25.624h-1.143v-4.589c0-.548.013-.982.039-1.303a4.284 4.284 0 0 1-.274.258c-.109.094-.473.392-1.092.895l-.573-.724 2.09-1.644h.953v7.107z"/></g></svg>